PathFileType	4	(X/Y/Z)	C:/Users/beibeiliu/ov580/test_trc/capture2\sequence.17_training_dense_left.trc
DataRate	CameraRate	NumFrames	NumMarkers	Units	OrigDataRate	OrigDataStartFrame	OrigNumFrames
120	120	20	19	mm	120	51	400
Frame#	Time	ThumbCMC			ThumbMCP			ThumbIP			ThumbTip			IndexMCP			IndexPIP			IndexTip			MiddleMCP			MiddlePIP			MiddleTip			RingMCP			RingPIP			RingTip			PinkyMCP			PinkyPIP			PinkyTip			BackHand1			BackHand2			BackHand3	
		X0	Y0	Z0	X1	Y1	Z1	X2	Y2	Z2	X3	Y3	Z3	X4	Y4	Z4	X5	Y5	Z5	X6	Y6	Z6	X7	Y7	Z7	X8	Y8	Z8	X9	Y9	Z9	X10	Y10	Z10	X11	Y11	Z11	X12	Y12	Z12	X13	Y13	Z13	X14	Y14	Z14	X15	Y15	Z15	X16	Y16	Z16	X17	Y17	Z17	X18	Y18	Z18	
50	0.416667	-132.674	106.633	59.4243	-115.102	126.96	42.0851	-104.234	133.952	18.2701	-100.587	117.716	-6.99056	-144.067	131.967	-10.4001	-131.135	136.189	-41.5202	-100.693	132.001	-38.2325	-147.543	117.544	-29.4445	-125.774	123.115	-53.3407	-96.0268	110.207	-38.5079	-149.072	99.0427	-32.5241	-124.718	104.328	-56.4574	-96.8003	97.6299	-36.7018	-147.389	78.3283	-31.763	-131.048	86.2287	-53.5127	-101.145	90.9995	-43.6889	-163.228	75.6251	9.7064	-169.896	64.0923	32.176	-161.689	97.0798	34.2394	
51	0.425	-131.503	106.029	59.4467	-112.859	128.17	44.4229	-103.77	132.45	17.9063	-101.356	113.788	-8.02872	-144.708	130.317	-13.3669	-130.705	137.409	-40.2165	-97.917	127.905	-36.5055	-147.084	117.643	-28.717	-128.25	126.068	-52.1535	-93.7703	108.332	-35.0717	-148.057	101.113	-32.6594	-125.402	107.44	-54.8046	-98.0071	96.3735	-41.4097	-148.205	74.1901	-30.6592	-128.768	88.1295	-52.5271	-102.113	90.7817	-40.3189	-161.69	77.0975	8.92062	-168.615	61.4778	32.5364	-161.006	99.0919	34.8555	
52	0.433333	-133.194	104.492	54.3927	-115.404	124.389	44.0504	-104.283	135.285	11.8929	-102.372	113.348	-7.01125	-145.05	126.942	-13.6417	-131.834	134.624	-41.0405	-99.0342	125.21	-36.5433	-148.391	116.844	-33.4996	-127.459	124.524	-53.2078	-95.1509	112.79	-35.8333	-148.795	94.8789	-34.0089	-126.91	105.785	-55.302	-97.3274	95.9056	-40.5479	-147.917	74.5465	-31.8907	-128.442	87.2352	-52.3962	-97.0024	87.2568	-41.1426	-160.559	76.6638	7.71122	-170.802	59.9409	34.1495	-160.539	99.371	32.765	
53	0.441667	-133.277	104.93	57.099	-116.613	127.169	38.7822	-105.4	135.212	12.029	-103.404	114.564	-6.06326	-146.238	126.255	-13.7426	-131.907	134.569	-41.916	-101.972	127.893	-39.4268	-148.286	118.756	-32.1229	-125.169	121.619	-54.7301	-96.1283	109.047	-37.2017	-149.047	99.2225	-34.1057	-129.089	102.53	-56.3472	-99.5498	98.5589	-43.1445	-148.397	75.7623	-29.8016	-130.867	87.6229	-51.9643	-100.775	88.6725	-43.6039	-164.829	71.4482	9.41578	-170.252	61.5109	33.1944	-161.086	99.4081	32.7418	
54	0.45	-135.43	107.452	51.879	-119.912	125.516	39.0789	-109.232	134.559	11.4386	-105.681	114.673	-7.13315	-148.738	124.621	-16.7634	-132.199	132.79	-45.5682	-103.698	126.29	-41.3041	-151.391	111.016	-34.1058	-126.765	119.166	-55.6607	-96.9567	109.515	-37.8823	-150.869	91.4419	-36.4984	-127.671	97.9434	-59.2385	-101.409	96.275	-42.4197	-149.157	73.7336	-33.8181	-131.648	83.6703	-54.1859	-103.104	86.9783	-42.7542	-164.701	70.8984	6.82145	-168.218	57.1061	33.2009	-160.649	96.1297	32.6802	
55	0.458333	-138.401	105.87	49.3887	-124.304	129.07	33.785	-115.213	132.737	8.85869	-108.099	115.924	-13.6858	-152.658	120.371	-18.7548	-138.585	128.25	-47.6	-106.858	124.552	-43.1074	-154.04	109.915	-35.6877	-130.999	117.911	-59.3504	-101.482	107.791	-44.0789	-152.587	90.4053	-35.3902	-128.106	96.7501	-61.0903	-102.977	95.4137	-43.2248	-149.678	68.251	-34.3861	-134.458	80.4364	-55.3695	-100.855	84.1463	-42.6706	-163.136	70.6889	7.69131	-168.092	60.2104	32.0189	-165.767	92.8482	32.3213	
56	0.466667	-145.874	110.242	44.9677	-133.929	132.874	29.4822	-123.791	138.2	2.4836	-114.153	118.537	-15.7921	-159.24	118.58	-25.9065	-144.91	126.033	-52.2417	-113.965	126.698	-47.7579	-158.429	104.246	-41.8921	-133.998	110.387	-63.4217	-104.233	106.86	-42.7985	-153.215	84.3136	-38.8213	-129.354	92.4126	-62.6263	-105.246	97.4837	-41.1457	-146.805	64.773	-31.8966	-133.867	75.4874	-56.7298	-102.245	84.5516	-44.1928	-164.248	64.7385	0.551717	-169.153	53.4532	31.9092	-167.128	93.1627	25.9044	
57	0.475	-153.535	108.076	43.5966	-146.444	130.854	25.4765	-135.005	132.539	-3.40417	-122.933	115.5	-15.5623	-163.972	111.497	-33.9218	-147.883	115.851	-57.8209	-118.404	124.303	-47.9297	-160.536	93.9461	-45.7616	-140.644	102.396	-67.3481	-108.576	108.971	-43.4548	-152.695	78.9775	-45.6865	-130.899	89.7283	-64.6009	-107.822	97.6671	-45.2601	-142.494	58.8312	-34.2548	-124.962	71.0853	-58.2591	-100.293	86.3655	-45.1581	-159.95	59.1278	2.89306	-167.146	54.8309	31.0132	-172.237	85.8971	23.7263	
58	0.483333	-164.682	110.251	40.1722	-158.359	128.924	18.2627	-148.543	133.345	-6.90042	-129.457	114.126	-20.258	-166.855	100.932	-35.5092	-151.832	106.915	-61.7757	-122.134	123.088	-48.2522	-157.928	84.654	-46.0199	-135.204	98.9571	-68.4223	-111.764	112.712	-44.5311	-147.306	70.1833	-43.1803	-125.631	84.4808	-63.9003	-107.997	99.6501	-44.1694	-134.764	54.6148	-33.479	-121.229	69.0551	-55.523	-100.335	91.6545	-39.5729	-157.735	58.9833	1.06307	-161.705	49.3839	31.9394	-174.408	79.4476	18.5187	
59	0.491667	-172.253	107.348	37.0977	-167.868	125.299	12.9892	-156.81	128.94	-12.2079	-133.979	112.702	-19.9648	-167.866	93.8141	-42.8622	-151.141	105.426	-65.5775	-127.972	119.56	-53.1307	-153.538	77.4788	-50.3803	-135.963	93.0136	-70.0269	-113.199	110.871	-45.8546	-140.202	66.3273	-45.6978	-121.419	85.614	-61.7093	-107.118	103.471	-36.0333	-125.748	54.7305	-28.4567	-110.824	71.8388	-52.1011	-101.677	93.4929	-36.5746	-150.22	50.693	6.03046	-157.006	45.488	31.8816	-176.776	76.3588	17.011	
60	0.5	-177.783	102.703	34.2245	-174.758	119.577	10.2237	-161.194	124.691	-19.0738	-138.486	111.451	-21.5281	-165.155	86.7064	-38.0547	-149.167	94.2867	-65.274	-127.535	120.014	-50.8655	-152.293	75.5669	-49.2682	-132.496	88.6349	-68.7692	-117.665	117.18	-44.5584	-134.558	63.8459	-42.9365	-114.956	82.883	-59.7532	-109.376	105.232	-37.8407	-121.043	56.7336	-26.9867	-105.818	70.8868	-48.7163	-98.2867	98.8615	-34.3783	-147.011	52.4639	3.1189	-154.4	46.5676	35.0547	-170.956	68.5508	16.4782	
61	0.508333	-179.754	99.8504	31.2464	-178.515	118.261	7.81403	-165.992	124.192	-17.7099	-137.211	112.319	-25.2254	-161.248	81.311	-38.338	-145.124	91.5722	-65.2829	-131.124	120.262	-54.3241	-146.656	73.0488	-50.5306	-126.388	90.8022	-67.1628	-117.959	116.748	-43.1185	-127.529	62.3465	-40.4644	-113.364	84.1828	-59.1302	-106.88	106.678	-33.5717	-114.046	55.0344	-27.7159	-102.623	75.0637	-47.7043	-101.71	101.375	-32.0472	-141.167	51.1452	3.67037	-149.285	46.4309	32.3704	-174.922	66.9493	16.9114	
62	0.516667	-179.47	97.2377	31.6105	-177.893	115.273	4.83046	-166.536	121.34	-15.9686	-137.509	110.722	-23.1671	-160.283	79.6871	-42.4395	-145.474	90.3508	-66.0906	-129.51	119.146	-50.7271	-144.681	71.7551	-48.6142	-126.796	92.8202	-67.8671	-115.717	115.644	-42.7225	-125.388	63.357	-42.4941	-113.043	84.4724	-59.6609	-108.307	108.953	-33.0975	-112.563	57.3062	-26.016	-100.13	76.1464	-46.8876	-99.2862	105.677	-30.4194	-142.871	49.8995	8.15053	-149.239	46.7355	33.3324	-170.947	64.8512	15.7612	
63	0.525	-177.775	94.7646	29.5316	-178.73	113.424	5.27513	-165.887	118.905	-18.1504	-137.712	110.216	-22.9451	-159.573	79.0028	-42.509	-143.043	91.775	-66.6511	-131.062	119.742	-52.3853	-141.612	69.6076	-50.6783	-126.503	88.7396	-68.7666	-119.741	116.329	-44.3195	-125.653	63.403	-40.0511	-111.675	85.9017	-59.1935	-106.861	108.267	-35.1937	-113.18	58.4753	-24.2894	-98.3675	75.0877	-47.1553	-102.327	105.187	-32.9587	-141.321	50.5541	6.12635	-144.426	40.9025	34.4566	-170.798	62.492	12.4565	
64	0.533333	-175.752	90.5948	26.9787	-179.194	112.356	6.37362	-164.761	118.091	-23.9333	-138.051	109.358	-23.4465	-157.359	75.6468	-45.116	-141.5	90.9204	-67.8123	-132.043	116.808	-56.1062	-143.107	68.2408	-51.2618	-123.2	89.256	-68.4781	-117.457	114.367	-42.6741	-122.55	60.1561	-43.49	-109.288	83.1949	-59.8801	-109.055	107.614	-35.238	-112.216	58.1333	-26.7877	-98.9178	75.0353	-48.3179	-96.2093	103.476	-32.8175	-138.17	47.3066	5.25588	-143.856	42.1726	32.9407	-168.463	61.9422	13.267	
65	0.541667	-175.803	89.7102	26.3918	-176.337	108.57	0.577417	-165.332	116.38	-19.4393	-137.173	107.267	-26.325	-159.031	74.8597	-41.6718	-140.387	87.8115	-67.1543	-129.339	116.943	-53.1577	-141.765	67.1479	-51.8658	-120.543	86.6512	-68.0756	-113.202	110.857	-44.5597	-124.778	61.9442	-44.5292	-109.029	83.8926	-59.2377	-106.269	105.678	-34.8775	-110.582	56.4553	-29.6525	-95.3853	73.4344	-47.034	-101.268	102.874	-34.1641	-136.977	46.5669	7.15958	-141.451	37.9281	29.8587	-166.206	56.7435	13.4527	
66	0.55	-176.65	89.9489	26.3185	-178.356	108.929	2.55147	-163.572	114.169	-22.6923	-134.539	105.643	-29.0503	-159.279	74.6087	-41.7096	-142.073	85.8973	-68.2297	-130.081	115.014	-54.3675	-138.851	65.0182	-51.7763	-124.815	84.4278	-70.6294	-115.021	111.311	-42.2387	-122.549	59.5139	-43.89	-105.343	80.2153	-59.8394	-105.664	104.236	-38.2682	-108.551	53.5738	-24.5937	-98.0179	71.3859	-46.8812	-95.2471	99.7647	-30.8927	-138.087	44.6304	6.84227	-141.117	39.0467	30.8633	-167.305	55.9922	13.7813	
67	0.558333	-177.63	89.2411	25.6765	-176.587	107.87	2.70622	-163.211	113.399	-25.0833	-132.73	101.716	-24.9565	-155.313	72.529	-41.6443	-141.435	83.9737	-67.4096	-128.427	113.046	-56.109	-137.188	64.738	-49.4348	-120.075	84.8202	-68.2547	-111.971	109.062	-43.1702	-121.808	58.0235	-42.557	-105.746	81.4011	-58.2185	-106.405	103.098	-34.9187	-106.846	52.3271	-28.6207	-95.0259	72.8658	-46.2109	-99.6767	98.992	-27.3943	-136.988	42.5054	6.3275	-142.214	39.8095	30.4936	-166.446	56.4264	13.2109	
68	0.566667	-176.893	89.7449	26.8884	-176.47	108.399	1.77406	-162.746	111.064	-21.1809	-132.812	102.925	-27.9077	-155.167	72.5988	-45.0527	-137.384	86.6783	-68.4964	-124.523	110.951	-53.4789	-136.901	63.2732	-50.0124	-119.239	81.6639	-68.0888	-113.581	109.608	-44.968	-122.978	58.2399	-40.9755	-105.707	79.1414	-58.634	-101.607	101.894	-35.7404	-105.17	50.4564	-26.3264	-96.5959	71.6455	-46.9184	-100.387	97.8076	-30.928	-135.957	44.234	3.38268	-141.006	36.3067	31.5021	-163.884	56.6389	12.4989	
69	0.575	-173.481	88.2288	28.1414	-173.903	106.628	0.970039	-162.25	111.787	-23.9219	-133.875	104.042	-29.1462	-157.876	74.2806	-46.2604	-137.749	86.9721	-67.6295	-124.688	111.35	-53.5997	-135.658	63.8416	-52.5616	-118.552	81.5987	-68.5558	-113.154	110.153	-42.4594	-119.34	57.0623	-41.8645	-103.624	76.8509	-59.149	-104.111	102.743	-36.6307	-106.457	49.9738	-27.5384	-97.4909	70.4887	-47.5588	-95.9674	97.4276	-32.6834	-135.98	41.7596	7.03634	-141.264	36.6176	35.525	-164.679	56.6885	13.6318	
